<svg width="25" height="24" viewBox="0 0 25 24" fill="none" xmlns="http://www.w3.org/2000/svg">
<path d="M24.2647 9.7752H23.011C22.8165 7.11878 21.6246 4.63442 19.6748 2.82114C17.7251 1.00786 15.1618 0 12.5 0C9.83817 0 7.27492 1.00786 5.32515 2.82114C3.37538 4.63442 2.18352 7.11878 1.98897 9.7752H0.735294C0.540282 9.7752 0.353257 9.85272 0.215363 9.9907C0.0774682 10.1287 0 10.3158 0 10.511C0.0043727 12.8243 0.647611 15.0915 1.85868 17.062C3.06975 19.0325 4.80152 20.6298 6.86275 21.6774V22.2832C6.86275 22.7385 7.0435 23.1752 7.36526 23.4972C7.68701 23.8191 8.1234 24 8.57843 24H16.4216C16.8766 24 17.313 23.8191 17.6347 23.4972C17.9565 23.1752 18.1373 22.7385 18.1373 22.2832V21.6774C20.1985 20.6298 21.9303 19.0325 23.1413 17.062C24.3524 15.0915 24.9956 12.8243 25 10.511C25 10.3158 24.9225 10.1287 24.7846 9.9907C24.6467 9.85272 24.4597 9.7752 24.2647 9.7752ZM18.1667 3.43413C18.5225 3.71922 18.8564 4.03076 19.1654 4.3661C17.8006 4.79127 16.5366 5.49014 15.4504 6.4201C14.3643 7.35006 13.4789 8.49163 12.848 9.7752H8.74265C9.32176 7.92963 10.4733 6.31661 12.0303 5.17006C13.5873 4.0235 15.4688 3.40301 17.402 3.39857C17.6569 3.39857 17.913 3.41206 18.1667 3.43413ZM20.1348 5.62303C20.9364 6.87058 21.418 8.2968 21.5368 9.7752H14.5196C15.1344 8.74574 15.9474 7.84862 16.9112 7.13587C17.8751 6.42312 18.9708 5.9089 20.1348 5.62303ZM12.5 1.43652C13.6234 1.43475 14.7372 1.64268 15.7843 2.04966C13.7617 2.36915 11.8752 3.26916 10.3538 4.6405C8.83236 6.01184 7.74138 7.79556 7.21324 9.7752H3.46324C3.65038 7.50467 4.68317 5.38735 6.35693 3.8429C8.03068 2.29844 10.2232 1.43958 12.5 1.43652ZM17.0956 20.5468C16.9675 20.6056 16.859 20.6999 16.7829 20.8186C16.7069 20.9373 16.6665 21.0754 16.6667 21.2164V22.2832C16.6667 22.3483 16.6408 22.4106 16.5949 22.4566C16.5489 22.5026 16.4866 22.5285 16.4216 22.5285H8.57843C8.51343 22.5285 8.45109 22.5026 8.40512 22.4566C8.35916 22.4106 8.33333 22.3483 8.33333 22.2832V21.2164C8.33347 21.0754 8.29311 20.9373 8.21707 20.8186C8.14103 20.6999 8.0325 20.6056 7.90441 20.5468C6.10064 19.7144 4.55386 18.4119 3.4262 16.7756C2.29854 15.1393 1.63153 13.2296 1.4951 11.2467H23.5049C23.3685 13.2296 22.7015 15.1393 21.5738 16.7756C20.4461 18.4119 18.8994 19.7144 17.0956 20.5468Z" fill="black"/>
</svg>
