<svg width="25" height="24" viewBox="0 0 25 24" fill="none" xmlns="http://www.w3.org/2000/svg">
<path d="M3.125 0.749931C3.125 0.551037 3.04269 0.360289 2.89618 0.21965C2.74966 0.0790105 2.55095 0 2.34375 0C2.13655 0 1.93784 0.0790105 1.79132 0.21965C1.64481 0.360289 1.5625 0.551037 1.5625 0.749931C1.5625 2.25279 2.63438 3.02222 3.375 3.55467L3.4375 3.59967C4.25938 4.19062 4.6875 4.54458 4.6875 5.24952C4.6875 5.44841 4.76981 5.63916 4.91632 5.7798C5.06284 5.92044 5.26155 5.99945 5.46875 5.99945C5.67595 5.99945 5.87466 5.92044 6.02118 5.7798C6.16769 5.63916 6.25 5.44841 6.25 5.24952C6.25 3.74666 5.17813 2.97723 4.4375 2.44478L4.375 2.39978C3.55313 1.80883 3.125 1.45487 3.125 0.749931ZM18.75 8.90168V10.499H20.3125C21.5557 10.499 22.748 10.9731 23.6271 11.8169C24.5061 12.6608 25 13.8053 25 14.9986C25 16.192 24.5061 17.3365 23.6271 18.1803C22.748 19.0241 21.5557 19.4982 20.3125 19.4982H17.4953C16.4637 21.2145 14.8709 22.5559 12.964 23.3145C11.057 24.073 8.9426 24.2062 6.94874 23.6934C4.95489 23.1806 3.19308 22.0505 1.93667 20.4784C0.680259 18.9063 -0.000505043 16.9801 2.8112e-07 14.9986V8.90168C2.8112e-07 8.12775 0.654688 7.49931 1.46094 7.49931H17.2891C18.0969 7.49931 18.75 8.12775 18.75 8.90168ZM1.5625 8.99917V14.9986C1.5625 16.9876 2.3856 18.895 3.85073 20.3014C5.31586 21.7078 7.303 22.4979 9.375 22.4979C11.447 22.4979 13.4341 21.7078 14.8993 20.3014C16.3644 18.895 17.1875 16.9876 17.1875 14.9986V8.99917H1.5625ZM18.75 14.9986C18.7511 16.0203 18.5709 17.0347 18.2172 17.9983H20.3125C21.1413 17.9983 21.9362 17.6823 22.5222 17.1197C23.1083 16.5572 23.4375 15.7942 23.4375 14.9986C23.4375 14.203 23.1083 13.4401 22.5222 12.8775C21.9362 12.3149 21.1413 11.9989 20.3125 11.9989H18.75V14.9986ZM7.03125 0C7.23845 0 7.43716 0.0790105 7.58368 0.21965C7.73019 0.360289 7.8125 0.551037 7.8125 0.749931C7.8125 1.45487 8.24063 1.80883 9.0625 2.39978L9.125 2.44478C9.86563 2.97723 10.9375 3.74666 10.9375 5.24952C10.9375 5.44841 10.8552 5.63916 10.7087 5.7798C10.5622 5.92044 10.3635 5.99945 10.1562 5.99945C9.94905 5.99945 9.75033 5.92044 9.60382 5.7798C9.45731 5.63916 9.375 5.44841 9.375 5.24952C9.375 4.54458 8.94687 4.19062 8.125 3.59967L8.0625 3.55467C7.32187 3.02222 6.25 2.25279 6.25 0.749931C6.25 0.551037 6.33231 0.360289 6.47882 0.21965C6.62534 0.0790105 6.82405 0 7.03125 0ZM12.5 0.749931C12.5 0.551037 12.4177 0.360289 12.2712 0.21965C12.1247 0.0790105 11.926 0 11.7188 0C11.5115 0 11.3128 0.0790105 11.1663 0.21965C11.0198 0.360289 10.9375 0.551037 10.9375 0.749931C10.9375 2.25279 12.0094 3.02222 12.75 3.55467L12.8125 3.59967C13.6344 4.19062 14.0625 4.54458 14.0625 5.24952C14.0625 5.44841 14.1448 5.63916 14.2913 5.7798C14.4378 5.92044 14.6365 5.99945 14.8438 5.99945C15.051 5.99945 15.2497 5.92044 15.3962 5.7798C15.5427 5.63916 15.625 5.44841 15.625 5.24952C15.625 3.74666 14.5531 2.97723 13.8125 2.44478L13.75 2.39978C12.9281 1.80883 12.5 1.45487 12.5 0.749931Z" fill="currentColor"/>
</svg>
