<svg width="25" height="24" viewBox="0 0 25 24" fill="none" xmlns="http://www.w3.org/2000/svg">
<path d="M4.2186 19.6218C3.83988 19.3749 3.53887 19.0394 3.31558 18.6151C3.09228 18.1897 2.98063 17.713 2.98063 17.1853V10.5702L0.631582 9.06357C0.417138 8.91569 0.257781 8.74052 0.15351 8.53805C0.0492392 8.33557 -0.00191273 8.11149 5.46492e-05 7.86579C0.00202203 7.62009 0.0541574 7.39601 0.156461 7.19353C0.258765 6.99106 0.41763 6.81588 0.633058 6.66801L10.6962 0.32081C10.8752 0.205923 11.0597 0.124024 11.2495 0.0751118C11.4394 0.0261996 11.6341 0.00117458 11.8338 3.70917e-05C12.0335 -0.0011004 12.2288 0.0239247 12.4196 0.0751118C12.6104 0.126299 12.7954 0.20763 12.9744 0.319104L24.367 7.46312C24.5755 7.6053 24.7329 7.78332 24.8392 7.99717C24.9464 8.21215 25 8.4442 25 8.69331V17.907C25 18.1481 24.9292 18.3506 24.7875 18.5144C24.6459 18.6782 24.4708 18.7601 24.2622 18.7601C24.0537 18.7601 23.8781 18.6782 23.7355 18.5144C23.5928 18.3506 23.5225 18.1481 23.5245 17.907V8.82469L20.687 10.5702V17.1853C20.687 17.713 20.5754 18.1897 20.3521 18.6151C20.1288 19.0405 19.8283 19.3761 19.4505 19.6218L12.9803 23.6724C12.7973 23.7918 12.6104 23.8765 12.4196 23.9266C12.2288 23.9766 12.0335 24.0011 11.8338 24C11.6341 23.9988 11.4389 23.9744 11.248 23.9266C11.0572 23.8788 10.8703 23.7935 10.6873 23.6707L4.2186 19.6218ZM11.493 13.9826C11.6258 14.0691 11.7438 14.1123 11.8471 14.1123C11.9514 14.1123 12.0699 14.0691 12.2027 13.9826L21.9117 7.86579L12.2027 1.78305C12.0709 1.69547 11.9529 1.65167 11.8486 1.65167C11.7443 1.65167 11.6263 1.69547 11.4945 1.78305L1.75594 7.86579L11.493 13.9826ZM11.4649 22.2272C11.5977 22.3148 11.7207 22.3586 11.8338 22.3586C11.9469 22.3586 12.0699 22.3148 12.2027 22.2272L18.7865 18.1134C18.938 18.0042 19.0462 17.8786 19.1111 17.7364C19.1761 17.5942 19.2095 17.4133 19.2115 17.1938V11.5086L12.9892 15.4364C12.8052 15.5558 12.6183 15.6405 12.4285 15.6906C12.2406 15.7395 12.0424 15.764 11.8338 15.764C11.6253 15.764 11.4266 15.7395 11.2377 15.6906C11.0488 15.6417 10.8624 15.5564 10.6785 15.4347L4.45616 11.5103V17.1955C4.45616 17.3707 4.48912 17.5407 4.55502 17.7057C4.62093 17.8695 4.72963 18.006 4.88112 18.1152L11.4649 22.2272Z" fill="black"/>
</svg>
