<svg width="12" height="15" viewBox="0 0 12 15" fill="none" xmlns="http://www.w3.org/2000/svg">
<path d="M6 13.2075L2.262 14.8509C1.72333 15.088 1.21167 15.0423 0.727 14.7139C0.242334 14.3862 0 13.928 0 13.3393V1.65157C0 1.18077 0.154333 0.787972 0.463 0.473192C0.771666 0.158412 1.156 0.000681342 1.616 0H10.385C10.845 0 11.2293 0.157731 11.538 0.473192C11.8467 0.788654 12.0007 1.18145 12 1.65157V13.3393C12 13.928 11.7577 14.3862 11.273 14.7139C10.7883 15.0423 10.2767 15.088 9.738 14.8509L6 13.2075ZM6 12.0598L10.135 13.883C10.3397 13.975 10.535 13.9556 10.721 13.8248C10.907 13.6933 11 13.5161 11 13.2933V1.6526C11 1.49521 10.936 1.35076 10.808 1.21926C10.68 1.08776 10.5387 1.02201 10.384 1.02201H1.616C1.462 1.02201 1.32067 1.08742 1.192 1.21824C1.06333 1.34906 0.999333 1.4935 1 1.65157V13.2944C1 13.5172 1.093 13.694 1.279 13.8248C1.465 13.9556 1.66033 13.975 1.865 13.883L6 12.0598ZM6 1.02201H1H11H6Z" fill="black"/>
</svg>
