<svg width="14" height="16" viewBox="0 0 14 16" fill="none" xmlns="http://www.w3.org/2000/svg">
<path d="M3.75 5.85714H9.16667M3.75 8H10.25M3.75 10.1429H7M13.5 13.3571V2.64286C13.5 2.07454 13.2717 1.52949 12.8654 1.12763C12.4591 0.725765 11.908 0.5 11.3333 0.5H2.66667C2.09203 0.5 1.54093 0.725765 1.1346 1.12763C0.728273 1.52949 0.5 2.07454 0.5 2.64286V13.3571C0.5 13.9255 0.728273 14.4705 1.1346 14.8724C1.54093 15.2742 2.09203 15.5 2.66667 15.5H11.3333C11.908 15.5 12.4591 15.2742 12.8654 14.8724C13.2717 14.4705 13.5 13.9255 13.5 13.3571Z" stroke="black" stroke-linecap="round" stroke-linejoin="round"/>
</svg>
