<svg width="8" height="6" viewBox="0 0 8 6" fill="none" xmlns="http://www.w3.org/2000/svg">
<path d="M0.571429 0C0.465308 0 0.361283 0.0310288 0.271011 0.0896095C0.180739 0.14819 0.107786 0.232009 0.0603275 0.331672C0.0128687 0.431336 -0.00722103 0.542906 0.00230924 0.653883C0.0118395 0.76486 0.0506132 0.870859 0.114286 0.96L3.54286 5.76C3.59608 5.83452 3.6651 5.895 3.74445 5.93666C3.8238 5.97831 3.91129 6 4 6C4.08871 6 4.1762 5.97831 4.25555 5.93666C4.3349 5.895 4.40392 5.83452 4.45714 5.76L7.88571 0.96C7.94939 0.870859 7.98816 0.76486 7.99769 0.653883C8.00722 0.542906 7.98713 0.431336 7.93967 0.331672C7.89221 0.232009 7.81926 0.14819 7.72899 0.0896095C7.63872 0.0310288 7.53469 0 7.42857 0H0.571429Z" fill="black"/>
</svg>
