<svg width="17" height="19" viewBox="0 0 17 19" fill="none" xmlns="http://www.w3.org/2000/svg">
<path d="M8.375 2.75H15.875M0.875 15.875H3.6875M0.875 2.75H4.625M7.4375 15.875H15.875M13.0625 9.3125H15.875M0.875 9.3125H9.3125" stroke="#6B6B6B" stroke-width="1.75" stroke-linecap="round"/>
<path d="M4.625 2.75C4.625 3.78553 5.46447 4.625 6.5 4.625C7.53553 4.625 8.375 3.78553 8.375 2.75C8.375 1.71447 7.53553 0.875 6.5 0.875C5.46447 0.875 4.625 1.71447 4.625 2.75Z" stroke="#6B6B6B" stroke-width="1.75" stroke-linecap="round"/>
<path d="M9.3125 9.3125C9.3125 10.348 10.152 11.1875 11.1875 11.1875C12.223 11.1875 13.0625 10.348 13.0625 9.3125C13.0625 8.27697 12.223 7.4375 11.1875 7.4375C10.152 7.4375 9.3125 8.27697 9.3125 9.3125Z" stroke="#6B6B6B" stroke-width="1.75" stroke-linecap="round"/>
<path d="M3.6875 15.875C3.6875 16.9105 4.52697 17.75 5.5625 17.75C6.59803 17.75 7.4375 16.9105 7.4375 15.875C7.4375 14.8395 6.59803 14 5.5625 14C4.52697 14 3.6875 14.8395 3.6875 15.875Z" stroke="#6B6B6B" stroke-width="1.75" stroke-linecap="round"/>
</svg>
