<svg width="13" height="12" viewBox="0 0 13 12" fill="none" xmlns="http://www.w3.org/2000/svg">
<path d="M2.36364 4.8V12H0V4.8H2.36364ZM4.72727 12C4.41384 12 4.11323 11.8736 3.8916 11.6485C3.66997 11.4235 3.54545 11.1183 3.54545 10.8V4.8C3.54545 4.47 3.67545 4.17 3.89409 3.954L7.78227 0L8.40864 0.636C8.56818 0.798 8.66864 1.02 8.66864 1.266L8.65091 1.458L8.08955 4.2H11.8182C12.1316 4.2 12.4322 4.32643 12.6539 4.55147C12.8755 4.77652 13 5.08174 13 5.4V6.6C13 6.756 12.9705 6.9 12.9173 7.038L11.1327 11.268C10.9555 11.7 10.5359 12 10.0455 12H4.72727ZM4.72727 10.8H10.0632L11.8182 6.6V5.4H6.62409L7.29182 2.208L4.72727 4.818V10.8Z" fill="currentColor"/>
</svg>
