<svg width="20" height="20" viewBox="0 0 20 20" fill="none" xmlns="http://www.w3.org/2000/svg">
<path d="M10 2C5.589 2 2 5.589 2 10C2 14.411 5.589 18 10 18C14.411 18 18 14.411 18 10C18 5.589 14.411 2 10 2ZM10 16C6.691 16 4 13.309 4 10C4 6.691 6.691 4 10 4C13.309 4 16 6.691 16 10C16 13.309 13.309 16 10 16ZM10.5 6.5H9.5V8H8.5V9.5H10.5C11.327 9.5 12 10.173 12 11C12 11.827 11.327 12.5 10.5 12.5H8.5V14H9.5V15.5H10.5V14H11.5V12.5H10.5C9.673 12.5 9 11.827 9 11H10.5C10.776 11 11 10.776 11 10.5C11 10.224 10.776 10 10.5 10H8.5V8.5H9.5V6.5H10.5Z" fill="currentColor"/>
</svg>
