<svg width="14" height="17" viewBox="0 0 14 17" fill="none" xmlns="http://www.w3.org/2000/svg">
<path d="M0.875 1.7C0.875 1.47457 0.967187 1.25837 1.13128 1.09896C1.29538 0.939553 1.51794 0.85 1.75 0.85H7V5.1C7 5.55087 7.18437 5.98327 7.51256 6.30208C7.84075 6.62089 8.28587 6.8 8.75 6.8H13.125V15.3C13.125 15.5254 13.0328 15.7416 12.8687 15.901C12.7046 16.0604 12.4821 16.15 12.25 16.15H1.75C1.51794 16.15 1.29538 16.0604 1.13128 15.901C0.967187 15.7416 0.875 15.5254 0.875 15.3V1.7ZM13.9982 6.409C14.002 6.36337 13.9982 6.31744 13.9869 6.273C13.94 5.89585 13.7644 5.54483 13.4881 5.27595L8.56888 0.4981C8.29244 0.229591 7.93142 0.0587261 7.54338 0.0127501C7.49706 0.00158178 7.44918 -0.00215086 7.40162 0.00170008L7.3325 0H1.75C1.28587 0 0.840752 0.179107 0.512563 0.497918C0.184374 0.81673 0 1.24913 0 1.7V15.3C0 15.7509 0.184374 16.1833 0.512563 16.5021C0.840752 16.8209 1.28587 17 1.75 17H12.25C12.7141 17 13.1592 16.8209 13.4874 16.5021C13.8156 16.1833 14 15.7509 14 15.3V6.47785L13.9982 6.40985M7.875 1.03445C7.90125 1.05485 7.92633 1.07667 7.95025 1.0999L12.8686 5.87775C12.892 5.90042 12.9144 5.92478 12.936 5.95085H8.75C8.51794 5.95085 8.29538 5.8613 8.13128 5.70189C7.96719 5.54249 7.875 5.32628 7.875 5.10085V1.03445Z" fill="black"/>
</svg>
