<svg width="21" height="16" viewBox="0 0 21 16" fill="none" xmlns="http://www.w3.org/2000/svg">
<path d="M0.5 15.5V14.6176C0.5 12.9795 1.15073 11.4085 2.30905 10.2502C3.46736 9.0919 5.03837 8.44116 6.67647 8.44116C8.31457 8.44116 9.88558 9.0919 11.0439 10.2502C12.2022 11.4085 12.8529 12.9795 12.8529 14.6176V15.5" stroke="black" stroke-linecap="round"/>
<path d="M11.0883 10.2058C11.0883 9.03576 11.5531 7.91361 12.3804 7.08624C13.2078 6.25888 14.3299 5.79407 15.5 5.79407C16.0794 5.79407 16.6531 5.90818 17.1883 6.12989C17.7236 6.3516 18.2099 6.67657 18.6196 7.08624C19.0293 7.49591 19.3542 7.98226 19.576 8.51752C19.7977 9.05278 19.9118 9.62647 19.9118 10.2058V10.647" stroke="black" stroke-linecap="round"/>
<path d="M6.67645 8.44118C7.6125 8.44118 8.51022 8.06933 9.17212 7.40744C9.83401 6.74554 10.2059 5.84782 10.2059 4.91176C10.2059 3.97571 9.83401 3.07799 9.17212 2.41609C8.51022 1.7542 7.6125 1.38235 6.67645 1.38235C5.74039 1.38235 4.84267 1.7542 4.18077 2.41609C3.51888 3.07799 3.14703 3.97571 3.14703 4.91176C3.14703 5.84782 3.51888 6.74554 4.18077 7.40744C4.84267 8.06933 5.74039 8.44118 6.67645 8.44118ZM15.5 5.79412C16.202 5.79412 16.8753 5.51523 17.3717 5.01881C17.8681 4.52239 18.147 3.8491 18.147 3.14706C18.147 2.44502 17.8681 1.77173 17.3717 1.27531C16.8753 0.778886 16.202 0.5 15.5 0.5C14.7979 0.5 14.1246 0.778886 13.6282 1.27531C13.1318 1.77173 12.8529 2.44502 12.8529 3.14706C12.8529 3.8491 13.1318 4.52239 13.6282 5.01881C14.1246 5.51523 14.7979 5.79412 15.5 5.79412Z" stroke="black" stroke-linecap="round" stroke-linejoin="round"/>
</svg>
