<svg width="13" height="18" viewBox="0 0 13 18" fill="none" xmlns="http://www.w3.org/2000/svg">
<path d="M13 13.5C13 11.6658 11.8969 10.0476 10.2143 9.072V2.7H10.6786C11.048 2.7 11.4023 2.55777 11.6635 2.30459C11.9247 2.05142 12.0714 1.70804 12.0714 1.35C12.0714 0.991958 11.9247 0.64858 11.6635 0.395406C11.4023 0.142232 11.048 5.33525e-09 10.6786 0H2.32143C1.95202 5.33525e-09 1.59774 0.142232 1.33653 0.395406C1.07532 0.64858 0.928571 0.991958 0.928571 1.35C0.928571 1.70804 1.07532 2.05142 1.33653 2.30459C1.59774 2.55777 1.95202 2.7 2.32143 2.7H2.78571V9.072C1.10314 10.0476 0 11.6658 0 13.5H5.57143V17.1C5.57143 17.595 5.98929 18 6.5 18C7.01071 18 7.42857 17.595 7.42857 17.1V13.5H13Z" fill="#6B7280"/>
</svg>
