<svg width="69" height="27" viewBox="0 0 69 27" fill="none" xmlns="http://www.w3.org/2000/svg">
<path d="M1.31934 20V10.4551H4.20215V12.1777H4.29004C4.6416 10.9297 5.48535 10.3145 6.54004 10.3145C6.82129 10.3145 7.1377 10.3672 7.38379 10.4199V13.0039C7.10254 12.916 6.5752 12.8633 6.20605 12.8633C5.09863 12.8633 4.29004 13.6367 4.29004 14.7793V20H1.31934Z" fill="black"/>
<path d="M8.60524 0.132561C8.52586 0.306543 8.28774 1.98839 8.12898 3.47968C8.05953 4.14247 8 5.81603 8 7.2079C8 9.33713 8.02977 9.82594 8.16867 10.2982C8.45641 11.2012 8.86321 11.7729 9.88516 12.676C10.7384 13.4299 10.8377 13.5542 11.0361 14.0927C11.2742 14.7638 11.2643 15.4266 10.9865 17.6055C10.8377 18.7737 10.3912 22.883 10.282 24.192C10.1531 25.6502 10.4706 26.4041 11.3734 26.7935C11.9092 27.0255 12.8022 27.0669 13.3578 26.8929C13.8837 26.7189 14.4492 26.2218 14.5881 25.791C14.7965 25.1614 14.6774 23.0736 14.1417 18.3511C13.7547 14.9212 13.7547 14.8135 13.9432 14.2252C14.0623 13.8524 14.2508 13.5707 14.5584 13.2476C16.9694 10.8118 17.0091 10.7207 16.9992 7.70499C16.9793 4.64785 16.6717 0.314829 16.4634 0.0994205C16.255 -0.0994186 15.9474 0.016571 15.878 0.331398C15.8383 0.488813 15.7589 1.92211 15.6994 3.5211C15.5803 6.62795 15.4315 8.51692 15.2827 8.84003C15.2132 8.99744 15.1339 9.03887 14.9255 9.01401C14.5683 8.98087 14.5385 8.87317 14.4096 6.38769C14.102 0.82021 14.0424 0.248549 13.7944 0.0414257C13.6257 -0.0994186 13.4273 0.21541 13.3678 0.729076C13.338 0.985909 13.2586 2.56005 13.209 4.22532C13.08 7.92869 12.9907 8.86489 12.7526 9.00573C12.4847 9.17143 12.316 9.13829 12.2069 8.89802C12.1573 8.77375 12.0184 7.00906 11.9092 4.97925C11.7108 1.19303 11.6116 0.289974 11.3734 0.091135C10.9964 -0.223692 10.8674 0.869919 10.7384 5.21951C10.669 7.44816 10.6095 8.48378 10.5202 8.64119C10.3813 8.89802 10.0042 9.01401 9.79587 8.87317C9.50813 8.67433 9.29977 6.67766 9.19063 3.024C9.11125 0.439102 9.06164 1.90735e-06 8.84336 1.90735e-06C8.74414 1.90735e-06 8.635 0.0579967 8.60524 0.132561Z" fill="black"/>
<path d="M22.7676 20.1758C19.7617 20.1758 17.9688 18.1719 17.9688 15.2539C17.9688 12.3359 19.7793 10.332 22.7676 10.332C25.3867 10.332 27.0918 11.8438 27.1621 14.1641H24.4023C24.2617 13.1973 23.6992 12.582 22.8027 12.582C21.7129 12.582 20.9922 13.5137 20.9922 15.2188C20.9922 16.9414 21.6953 17.873 22.8027 17.873C23.6465 17.873 24.2793 17.3281 24.4023 16.3086H27.1621C27.0742 18.6289 25.4219 20.1758 22.7676 20.1758ZM32.6887 20.1758C29.7004 20.1758 27.8723 18.3125 27.8723 15.2715C27.8723 12.3184 29.718 10.332 32.5832 10.332C35.2551 10.332 37.1887 12.0371 37.1887 15.2012V15.957H30.7902V16.0098C30.7902 17.2402 31.5461 18.0312 32.7414 18.0312C33.55 18.0312 34.1477 17.6797 34.3938 17.1172H37.1535C36.802 18.9805 35.1672 20.1758 32.6887 20.1758ZM30.7902 14.2168H34.4289C34.4113 13.1973 33.673 12.4766 32.6535 12.4766C31.5988 12.4766 30.8342 13.2236 30.7902 14.2168ZM38.268 20V10.4551H41.1508V12.1777H41.2387C41.5902 10.9297 42.434 10.3145 43.4887 10.3145C43.7699 10.3145 44.0863 10.3672 44.3324 10.4199V13.0039C44.0512 12.916 43.5238 12.8633 43.1547 12.8633C42.0473 12.8633 41.2387 13.6367 41.2387 14.7793V20H38.268ZM45.0777 20V10.4551H48.0484V20H45.0777ZM46.5719 9.3125C45.7281 9.3125 45.0426 8.67969 45.0426 7.88867C45.0426 7.09766 45.7281 6.46484 46.5719 6.46484C47.4156 6.46484 48.1187 7.09766 48.1187 7.88867C48.1187 8.67969 47.4156 9.3125 46.5719 9.3125ZM53.9266 20.1758C50.9207 20.1758 49.1277 18.1719 49.1277 15.2539C49.1277 12.3359 50.9383 10.332 53.9266 10.332C56.5457 10.332 58.2508 11.8438 58.3211 14.1641H55.5613C55.4207 13.1973 54.8582 12.582 53.9617 12.582C52.8719 12.582 52.1512 13.5137 52.1512 15.2188C52.1512 16.9414 52.8543 17.873 53.9617 17.873C54.8055 17.873 55.4383 17.3281 55.5613 16.3086H58.3211C58.2332 18.6289 56.5809 20.1758 53.9266 20.1758ZM58.9609 17.3457C58.9609 15.2363 60.5957 14.4805 62.4941 14.3574C63.1797 14.3135 64.375 14.2695 64.7793 14.252V13.4785C64.7793 12.8105 64.2871 12.4414 63.4785 12.4414C62.6875 12.4414 62.1953 12.7754 62.0723 13.4082H59.3125C59.4355 11.7207 60.877 10.332 63.5488 10.332C65.9043 10.332 67.75 11.457 67.75 13.5137V20H64.9551V18.6641H64.8848C64.3574 19.6309 63.4434 20.1758 62.1074 20.1758C60.2793 20.1758 58.9609 19.2441 58.9609 17.3457ZM61.7734 17.2227C61.7734 17.873 62.2832 18.207 63.0039 18.207C64.0059 18.207 64.8145 17.5566 64.7969 16.6074V15.9922C64.4365 16.0098 63.4258 16.0537 62.9863 16.0977C62.248 16.1855 61.7734 16.5898 61.7734 17.2227Z" fill="black"/>
</svg>
