<svg width="242" height="242" viewBox="0 0 242 242" fill="none" xmlns="http://www.w3.org/2000/svg">
<circle cx="121" cy="121" r="118" fill="#D9D9D9" stroke="black" stroke-width="6"/>
<path d="M122.406 120.331C122.977 120.903 123.149 121.763 122.839 122.51L79.3379 227.501C79.0822 228.118 78.5352 228.568 77.8801 228.698C77.225 228.828 76.5481 228.623 76.0758 228.15L14.5858 166.66C14.1135 166.188 13.9079 165.511 14.0382 164.856C14.1685 164.201 14.6178 163.654 15.2349 163.398L120.226 119.897L120.367 119.845C121.08 119.611 121.87 119.795 122.406 120.331Z" fill="#397ADC" stroke="black" stroke-width="4" stroke-linejoin="round"/>
<path d="M123 121.48C123 122.289 122.513 123.019 121.766 123.328L16.7656 166.808C16.1485 167.063 15.444 166.994 14.8887 166.623C14.3333 166.252 14 165.628 14 164.96L14 78C14 77.3321 14.3333 76.708 14.8887 76.3369C15.444 75.9658 16.1485 75.8968 16.7656 76.1523L121.766 119.632L121.902 119.695C122.572 120.033 123 120.722 123 121.48Z" fill="#8B39DC" stroke="black" stroke-width="4" stroke-linejoin="round"/>
<path d="M122.405 122.406C121.833 122.977 120.973 123.149 120.226 122.839L15.2349 79.3377C14.6178 79.0821 14.1685 78.5351 14.0382 77.88C13.9079 77.2249 14.1135 76.5479 14.5858 76.0756L76.0758 14.5857C76.5481 14.1134 77.225 13.9078 77.8801 14.0381C78.5352 14.1684 79.0822 14.6177 79.3379 15.2348L122.839 120.226L122.891 120.367C123.125 121.08 122.941 121.869 122.405 122.406Z" fill="#DC39B6" stroke="black" stroke-width="4" stroke-linejoin="round"/>
<path d="M121.479 123C120.671 123 119.941 122.513 119.632 121.766L76.1523 16.7656C75.8968 16.1485 75.9658 15.444 76.3369 14.8887C76.708 14.3333 77.3321 14 78 14L164.96 14C165.628 14 166.252 14.3333 166.623 14.8887C166.994 15.444 167.063 16.1485 166.808 16.7656L123.328 121.766L123.265 121.902C122.926 122.572 122.238 123 121.479 123Z" fill="#DC3939" stroke="black" stroke-width="4" stroke-linejoin="round"/>
<path d="M120.331 120.331C120.903 119.759 121.763 119.588 122.51 119.897L227.501 163.399C228.118 163.654 228.568 164.201 228.698 164.856C228.828 165.511 228.623 166.188 228.15 166.661L166.66 228.151C166.188 228.623 165.511 228.829 164.856 228.698C164.201 228.568 163.654 228.119 163.398 227.502L119.897 122.511L119.845 122.369C119.611 121.657 119.795 120.867 120.331 120.331Z" fill="#39DC64" stroke="black" stroke-width="4" stroke-linejoin="round"/>
<path d="M120 121.479C120 120.671 120.487 119.941 121.234 119.632L226.234 76.1523C226.851 75.8968 227.556 75.9658 228.111 76.3369C228.667 76.708 229 77.3321 229 78V164.96C229 165.628 228.667 166.252 228.111 166.623C227.556 166.994 226.851 167.063 226.234 166.808L121.234 123.328L121.098 123.265C120.428 122.926 120 122.238 120 121.479Z" fill="#AEDC39" stroke="black" stroke-width="4" stroke-linejoin="round"/>
<path d="M120.33 122.405C119.759 121.833 119.587 120.973 119.897 120.226L163.398 15.235C163.654 14.618 164.201 14.1686 164.856 14.0383C165.511 13.9081 166.188 14.1136 166.66 14.5859L228.15 76.0759C228.623 76.5482 228.828 77.2252 228.698 77.8803C228.568 78.5354 228.118 79.0823 227.501 79.338L122.51 122.84L122.369 122.891C121.657 123.125 120.867 122.941 120.33 122.405Z" fill="#DCD139" stroke="black" stroke-width="4" stroke-linejoin="round"/>
<path d="M121.48 120C122.289 120 123.019 120.487 123.328 121.234L166.808 226.234C167.063 226.851 166.994 227.556 166.623 228.111C166.252 228.667 165.628 229 164.96 229H78C77.3321 229 76.708 228.667 76.3369 228.111C75.9658 227.556 75.8968 226.851 76.1523 226.234L119.632 121.234L119.695 121.098C120.033 120.428 120.722 120 121.48 120Z" fill="#39D7DC" stroke="black" stroke-width="4" stroke-linejoin="round"/>
<circle cx="120.5" cy="122.5" r="9.5" fill="#D9D9D9" stroke="black" stroke-width="4"/>
<circle cx="121" cy="121" r="113" stroke="#CDCDCD" stroke-width="6"/>
<circle cx="121" cy="121" r="107.5" stroke="black" stroke-width="5"/>
</svg>
