<svg width="17" height="17" viewBox="0 0 17 17" fill="none" xmlns="http://www.w3.org/2000/svg">
<path d="M16.0063 6.87534C17.3312 7.53277 17.3312 9.4689 16.0063 10.1252L2.52416 16.8102C1.17727 17.4786 -0.171823 16.27 0.0179271 14.9256L0.61021 10.729C0.656242 10.3922 0.796914 10.0755 1.0159 9.81538C1.23489 9.5553 1.52322 9.36259 1.84742 9.25962C2.02291 9.20483 2.45068 9.11389 2.95741 9.01089C3.83002 8.83465 4.70384 8.66445 5.57881 8.50029L4.89 8.3688C4.24516 8.24571 3.60096 8.11934 2.95741 7.98969C2.58482 7.91878 2.21463 7.83583 1.84742 7.74096C1.52307 7.6379 1.23464 7.44503 1.01563 7.18474C0.796632 6.92445 0.656047 6.60743 0.61021 6.27051L0.0179271 2.07392C-0.171823 0.730571 1.17727 -0.478003 2.52416 0.189287L16.0063 6.87534ZM15.3548 8.50029C15.3548 8.41263 15.3153 8.36661 15.2747 8.34689L1.79368 1.66302C1.76955 1.65097 1.75748 1.65207 1.752 1.65207C1.73552 1.65581 1.72013 1.66331 1.70703 1.67398C1.66864 1.70357 1.63464 1.75945 1.64671 1.84491L2.23899 6.0415C2.24996 6.12368 2.30151 6.16203 2.33002 6.1697C2.41009 6.1949 2.73914 6.26832 3.28536 6.37789C3.80854 6.48527 4.48089 6.61675 5.2004 6.75481C6.64053 7.03093 8.26711 7.33554 9.26303 7.51962L9.28277 7.52291C9.39794 7.54482 9.51968 7.56674 9.61511 7.59085C9.66556 7.6029 9.74563 7.62481 9.82789 7.66207C9.99724 7.7323 10.1403 7.85377 10.237 8.00941C10.3285 8.15682 10.377 8.32683 10.377 8.50029C10.377 8.67375 10.3285 8.84376 10.237 8.99117C10.1403 9.14681 9.99724 9.26828 9.82789 9.33851C9.75959 9.36946 9.68829 9.39332 9.61511 9.40973C9.50506 9.4358 9.39422 9.45845 9.28277 9.47767L9.26303 9.48096C8.26711 9.66613 6.64163 9.96964 5.2004 10.2458C4.47979 10.3838 3.80744 10.5153 3.28536 10.6216C2.73914 10.7323 2.41009 10.8057 2.33002 10.8298C2.30151 10.8396 2.25105 10.8769 2.23899 10.9591L1.64671 15.1557C1.63574 15.2411 1.66864 15.297 1.70703 15.3266C1.72013 15.3373 1.73552 15.3448 1.752 15.3485C1.75748 15.3485 1.76955 15.3496 1.79368 15.3376L15.2747 8.65369C15.3153 8.63397 15.3548 8.58795 15.3548 8.50029Z" fill="black"/>
</svg>
