<svg width="21" height="21" viewBox="0 0 21 21" fill="none" xmlns="http://www.w3.org/2000/svg">
<path fill-rule="evenodd" clip-rule="evenodd" d="M7.54705 0.227565C7.65606 0.336543 7.73023 0.475456 7.76014 0.626666C7.79005 0.777877 7.77435 0.934565 7.71504 1.07684C7.24176 2.21485 6.99857 3.43534 6.99953 4.66784C6.99953 7.14302 7.9828 9.51682 9.73302 11.267C11.4832 13.0172 13.8571 14.0005 16.3322 14.0005C17.5647 14.0015 18.7852 13.7583 19.9233 13.285C20.0654 13.2258 20.222 13.2101 20.3731 13.24C20.5242 13.2698 20.663 13.3439 20.7719 13.4527C20.8809 13.5616 20.9551 13.7003 20.9851 13.8514C21.0151 14.0024 20.9996 14.159 20.9405 14.3012C20.1134 16.2854 18.7174 17.9804 16.9285 19.1725C15.1396 20.3646 13.0379 21.0005 10.8882 21C4.87478 21 0 16.1263 0 10.1119C0 5.58244 2.76559 1.70005 6.69881 0.0595771C6.84095 0.000490445 6.99743 -0.0150869 7.14843 0.0148176C7.29943 0.0447221 7.43816 0.118763 7.54705 0.227565Z" fill="black"/>
</svg>
