<svg width="70" height="70" viewBox="0 0 70 70" fill="none" xmlns="http://www.w3.org/2000/svg">
<path d="M32.8125 46.0742V13.125C32.8125 11.8945 33.7695 10.9375 35 10.9375C36.2305 10.9375 37.1875 11.8945 37.1875 13.125V46.0742H32.8125ZM32.8125 50.3809H37.1875V54.4824H32.8125V50.3809ZM0 35C0 15.6543 15.6543 0 35 0C54.3457 0 70 15.6543 70 35C70 54.3457 54.3457 70 35 70C15.6543 70 0 54.3457 0 35ZM65.6934 35C65.6934 18.1152 51.8848 4.375 35 4.375C18.1152 4.375 4.375 18.1152 4.375 35C4.375 51.8848 18.1152 65.625 35 65.625C51.8848 65.625 65.6934 51.8848 65.6934 35Z" fill="currentColor"/>
</svg>
